<?xml version="1.0" encoding="UTF-8" standalone="no"?>
<svg
   version="1.1"
   viewBox="0 0 1024 1024"
   id="svg1"
   sodipodi:docname="favicon.svg"
   inkscape:version="1.4 (86a8ad7, 2024-10-11)"
   xmlns:inkscape="http://www.inkscape.org/namespaces/inkscape"
   xmlns:sodipodi="http://sodipodi.sourceforge.net/DTD/sodipodi-0.dtd"
   xmlns="http://www.w3.org/2000/svg"
   xmlns:svg="http://www.w3.org/2000/svg">
  <defs
     id="defs1" />
  <sodipodi:namedview
     id="namedview1"
     pagecolor="#ffffff"
     bordercolor="#000000"
     borderopacity="0.25"
     inkscape:showpageshadow="2"
     inkscape:pageopacity="0.0"
     inkscape:pagecheckerboard="0"
     inkscape:deskcolor="#d1d1d1"
     inkscape:zoom="0.19702148"
     inkscape:cx="-614.14622"
     inkscape:cy="301.99752"
     inkscape:window-width="1920"
     inkscape:window-height="1009"
     inkscape:window-x="-8"
     inkscape:window-y="-8"
     inkscape:window-maximized="1"
     inkscape:current-layer="svg1" />
  <path
     d="m 484.7885,28.344481 c -44.54194,9.01194 -79.97522,29.501418 -110.00542,63.612752 -50.72952,57.626097 -67.5559,139.490977 -44.42681,216.146977 15.79156,52.34165 67.76072,147.31083 130.52265,238.5351 14.62287,21.25272 30.36221,44.3488 34.97546,51.32691 11.84233,17.90758 20.71537,21.9476 33.47874,15.23845 7.14476,-3.75655 11.66697,-9.84931 36.54977,-49.23639 10.35501,-16.39129 24.84265,-38.30691 32.19492,-48.7014 41.17773,-58.21488 88.75054,-144.48615 105.76033,-191.79629 14.2855,-39.73017 18.88,-77.33928 13.8638,-113.50043 -6.76322,-48.75954 -25.0274,-88.36322 -56.30527,-122.095123 -26.46654,-28.541929 -58.60388,-47.407541 -98.29296,-57.700254 -15.40333,-3.99497 -62.2211,-5.094022 -78.31521,-1.83757 m 65.46213,108.775657 c 34.91923,12.97057 59.52492,43.32681 66.95884,82.6092 5.3415,28.22356 -0.68274,60.12952 -15.65768,82.91741 -19.40076,29.52468 -48.64913,46.20963 -80.88154,46.14131 -16.9616,-0.0364 -28.39696,-3.0762 -44.42546,-11.809 -30.02353,-16.35932 -49.25425,-46.07006 -53.75235,-83.04679 -2.63862,-21.69176 2.50742,-48.38884 13.06324,-67.77492 10.14082,-18.62427 28.72895,-36.65105 46.55537,-45.14983 20.57481,-9.81004 47.98514,-11.37431 68.13958,-3.88738 M 334.85036,482.20954 c -77.11688,44.3944 -165.47008,76.7533 -241.117126,123.16366 -7.320125,5.20887 -10.82893,22.56111 -6.720396,33.23762 4.008143,10.41772 22.679292,22.72536 69.677782,45.92758 31.00881,15.3097 33.67687,16.96263 31.65274,19.61287 -0.78984,1.03217 -10.28673,6.38497 -21.10495,11.89621 -41.69449,21.23673 -67.1824,35.40374 -72.054015,40.04854 -11.681682,11.13882 -12.982917,27.56792 -3.145998,39.73455 4.712311,5.8267 23.632453,16.52795 69.447523,39.27367 71.85116,35.6777 326.31716,169.94416 363.15631,171.32906 38.79026,1.4582 258.33883,-120.15061 377.69618,-183.01739 49.25157,-26.20281 52.12446,-28.72512 52.10974,-45.7357 -0.009,-8.90436 -2.316,-14.81686 -8.01761,-20.53747 -2.08974,-2.09778 -24.81053,-15.12941 -50.48988,-28.96061 -42.37053,-22.82134 -46.45765,-25.3349 -44.17781,-27.16811 3.87293,-3.11544 53.98528,-30.34024 72.0607,-39.14866 20.87335,-10.17204 25.77842,-13.78612 28.92308,-21.30504 4.80736,-11.50079 2.51947,-27.35129 -5.01618,-34.75245 -63.82448,-35.78056 -130.08141,-67.28103 -195.19899,-100.71013 -49.18865,-25.26658 -64.43534,-32.71571 -66.95347,-32.71571 -2.00139,0 -27.89896,34.22618 -30.44252,40.23462 -0.73765,1.74017 -0.94783,4.86287 -0.46723,6.93887 0.74433,3.21865 4.95729,5.93284 28.61785,18.43093 15.2601,8.06117 44.31168,23.01613 64.55983,33.23326 41.94081,21.16402 108.89565,55.4062 109.53019,56.01823 0.23293,0.22387 -1.87554,1.20372 -4.68553,2.1763 -5.24567,1.8156 -129.48231,68.5852 -149.6918,78.89336 -55.94139,30.1529 -93.15781,57.82289 -152.19819,81.31343 l -31.09556,12.37207 -15.45154,-7.88381 c -8.49685,-4.33659 -26.29381,-13.2177 -39.54715,-19.73643 -60.88402,-29.94606 43.24852,20.5065 -243.27246,-125.44463 -32.05569,-16.32877 -39.39323,-20.58688 -37.77203,-21.91707 2.10849,-1.73144 74.80107,-38.68056 149.8431,-76.1661 24.29779,-12.13754 45.59016,-23.47115 47.31711,-25.18805 4.52086,-4.49361 3.36822,-13.10723 -3.19554,-23.88551 -10.93869,-17.95992 -19.41681,-29.38656 -21.70737,-29.25717 -1.28383,0.0713 -10.76734,4.43546 -21.07548,9.69521 m -45.7468,266.97089 c 64.33245,33.08821 128.80235,65.91957 192.93655,99.39157 33.25116,17.44091 37.74525,18.66643 50.27166,13.70471 6.92689,-2.74528 208.14773,-105.85646 226.03643,-116.1274 12.78345,-7.33864 17.37259,-9.30414 20.2669,-8.67467 10.41928,2.26208 64.74592,30.28501 74.82517,38.59478 l 3.18213,2.62407 -10.07655,6.81964 c -10.36839,7.01737 -27.76508,16.0613 -96.02247,49.91821 -34.58052,17.15307 -124.47426,66.04806 -198.08118,104.55559 l -31.9152,13.98216 -33.93256,-17.86541 C 414.27804,898.0308 373.6358,877.0514 338.85982,859.85037 289.19995,835.28305 194.37162,787.61528 186.31251,783.16964 l -6.61329,-3.65041 5.41112,-3.70858 c 10.01498,-6.86473 72.88401,-40.24481 75.86803,-40.28115"
     fill-rule="evenodd"
     id="path1"
     style="fill:#55d400;stroke-width:1.39505"
     sodipodi:nodetypes="ccccccscccccccccccsccccccccccccssccscscccscccccscsccsscscccccccccccsccccccccc" />
</svg>
